<?xml version="1.0" encoding="utf-8" standalone="no"?><svg xmlns:inkscape="http://www.inkscape.org/namespaces/inkscape" xmlns:rdf="http://www.w3.org/1999/02/22-rdf-syntax-ns#" xmlns="http://www.w3.org/2000/svg" xmlns:svg="http://www.w3.org/2000/svg" height="79" width="305" version="1.1" xmlns:cc="http://creativecommons.org/ns#" xmlns:dc="http://purl.org/dc/elements/1.1/" sodipodi:docname="filename.svg" id="svg2" xmlns:sodipodi="http://sodipodi.sourceforge.net/DTD/sodipodi-0.dtd"  >
<metadata id="metadata11"  >
<rdf:RDF  >
<cc:Work rdf:about=""  >
<dc:format  >
image/svg+xml</dc:format>
<dc:type rdf:resource="http://purl.org/dc/dcmitype/StillImage"  />
<dc:title  >
image/svg+xml</dc:title>
</cc:Work>
</rdf:RDF>
</metadata>
<sodipodi:namedview bordercolor="#666666" inkscape:pageshadow="2" guidetolerance="10" pagecolor="#ffffff" gridtolerance="10" inkscape:window-maximized="0" inkscape:zoom="1.0000000" objecttolerance="10" id="base" borderopacity="1" inkscape:current-layer="svg2" inkscape:cx="160.0000" inkscape:cy="1010.000" inkscape:window-y="24" inkscape:window-x="0" inkscape:window-width="640" showgrid="false" inkscape:pageopacity="0" inkscape:window-height="480"  />
<defs id="defs4"  >
<marker refY="10" refX="0" markerUnits="strokeWidth" orient="auto" viewBox="0 0 20 20" markerWidth="3" id="small-right-arrow" markerHeight="6"  >
<path d="M 0 0 L 20 10 L 0 20 z "  />
</marker>
<marker refY="10" refX="0" markerUnits="strokeWidth" orient="auto" viewBox="0 0 20 20" markerWidth="5" id="normal-right-arrow" markerHeight="10"  >
<path d="M 0 0 L 20 10 L 0 20 z "  />
</marker>
<marker refY="10" refX="0" markerUnits="strokeWidth" orient="auto" viewBox="0 0 20 20" markerWidth="7" id="large-right-arrow" markerHeight="14"  >
<path d="M 0 0 L 20 10 L 0 20 z "  />
</marker>
</defs>
<rect style="stroke:black; stroke-width:2; fill:none; " height="79" width="305" y="0" x="0"  />
<rect style="stroke:black; stroke-width:2; fill:black; " height="24" width="156.75" y="0" x="0"  />
<text font-size="16" font-weight="bold" font-style="italic" y="17.78" x="5" font-family="Times New Roman" fill="white"  >
Example of Sequence</text>
<line y1="56" x2="15" style="stroke:black; stroke-width:2; " x1="5" y2="56"  />
<line style="stroke:black; stroke-width:2; " y2="56" marker-end="url(#normal-right-arrow)" x2="290" y1="56" x1="290"  />
<rect style="stroke:black; stroke-width:2; fill:none; " rx="16" ry="16" height="35" width="35" y="39" x="25"  />
<text font-size="16" font-weight="bold" font-style="roman" y="62" x="37.1375" font-family="Courier New" fill="black"  >
A</text>
<line style="stroke:black; stroke-width:2; " y2="56" marker-end="url(#normal-right-arrow)" x2="15" y1="56" x1="15"  />
<line y1="56" x2="70" style="stroke:black; stroke-width:2; " x1="60" y2="56"  />
<rect style="stroke:black; stroke-width:2; fill:none; " rx="16" ry="16" height="35" width="35" y="39" x="80"  />
<text font-size="16" font-weight="bold" font-style="roman" y="62" x="92.1375" font-family="Courier New" fill="black"  >
B</text>
<line style="stroke:black; stroke-width:2; " y2="56" marker-end="url(#normal-right-arrow)" x2="70" y1="56" x1="70"  />
<line y1="56" x2="125" style="stroke:black; stroke-width:2; " x1="115" y2="56"  />
<rect style="stroke:black; stroke-width:2; fill:none; " rx="16" ry="16" height="35" width="35" y="39" x="135"  />
<text font-size="16" font-weight="bold" font-style="roman" y="62" x="147.1375" font-family="Courier New" fill="black"  >
C</text>
<line style="stroke:black; stroke-width:2; " y2="56" marker-end="url(#normal-right-arrow)" x2="125" y1="56" x1="125"  />
<line y1="56" x2="180" style="stroke:black; stroke-width:2; " x1="170" y2="56"  />
<rect style="stroke:black; stroke-width:2; fill:none; " rx="16" ry="16" height="35" width="35" y="39" x="190"  />
<text font-size="16" font-weight="bold" font-style="roman" y="62" x="202.1375" font-family="Courier New" fill="black"  >
D</text>
<line style="stroke:black; stroke-width:2; " y2="56" marker-end="url(#normal-right-arrow)" x2="180" y1="56" x1="180"  />
<line y1="56" x2="235" style="stroke:black; stroke-width:2; " x1="225" y2="56"  />
<rect style="stroke:black; stroke-width:2; fill:none; " rx="16" ry="16" height="35" width="35" y="39" x="245"  />
<text font-size="16" font-weight="bold" font-style="roman" y="62" x="257.1375" font-family="Courier New" fill="black"  >
E</text>
<line style="stroke:black; stroke-width:2; " y2="56" marker-end="url(#normal-right-arrow)" x2="235" y1="56" x1="235"  />
<line y1="56" x2="290" style="stroke:black; stroke-width:2; " x1="280" y2="56"  />
</svg>
