<?xml version="1.0" encoding="utf-8" standalone="no"?><svg xmlns:inkscape="http://www.inkscape.org/namespaces/inkscape" xmlns:rdf="http://www.w3.org/1999/02/22-rdf-syntax-ns#" xmlns="http://www.w3.org/2000/svg" xmlns:svg="http://www.w3.org/2000/svg" height="149" width="290" version="1.1" xmlns:cc="http://creativecommons.org/ns#" xmlns:dc="http://purl.org/dc/elements/1.1/" sodipodi:docname="filename.svg" id="svg2" xmlns:sodipodi="http://sodipodi.sourceforge.net/DTD/sodipodi-0.dtd"  >
<metadata id="metadata11"  >
<rdf:RDF  >
<cc:Work rdf:about=""  >
<dc:format  >
image/svg+xml</dc:format>
<dc:type rdf:resource="http://purl.org/dc/dcmitype/StillImage"  />
<dc:title  >
image/svg+xml</dc:title>
</cc:Work>
</rdf:RDF>
</metadata>
<sodipodi:namedview bordercolor="#666666" inkscape:pageshadow="2" guidetolerance="10" pagecolor="#ffffff" gridtolerance="10" inkscape:window-maximized="0" inkscape:zoom="1.0000000" objecttolerance="10" id="base" borderopacity="1" inkscape:current-layer="svg2" inkscape:cx="160.0000" inkscape:cy="1010.000" inkscape:window-y="24" inkscape:window-x="0" inkscape:window-width="640" showgrid="false" inkscape:pageopacity="0" inkscape:window-height="480"  />
<defs id="defs4"  >
<marker refY="10" refX="0" markerUnits="strokeWidth" orient="auto" viewBox="0 0 20 20" markerWidth="3" id="small-right-arrow" markerHeight="6"  >
<path d="M 0 0 L 20 10 L 0 20 z "  />
</marker>
<marker refY="10" refX="0" markerUnits="strokeWidth" orient="auto" viewBox="0 0 20 20" markerWidth="5" id="normal-right-arrow" markerHeight="10"  >
<path d="M 0 0 L 20 10 L 0 20 z "  />
</marker>
<marker refY="10" refX="0" markerUnits="strokeWidth" orient="auto" viewBox="0 0 20 20" markerWidth="7" id="large-right-arrow" markerHeight="14"  >
<path d="M 0 0 L 20 10 L 0 20 z "  />
</marker>
</defs>
<rect style="stroke:black; stroke-width:2; fill:none; " height="149" width="290" y="0" x="0"  />
<rect style="stroke:black; stroke-width:2; fill:black; " height="24" width="138.6" y="0" x="0"  />
<text font-size="16" font-weight="bold" font-style="italic" y="17.78" x="5" font-family="Times New Roman" fill="white"  >
Example of Return</text>
<line y1="126" x2="15" style="stroke:black; stroke-width:2; " x1="5" y2="126"  />
<line style="stroke:black; stroke-width:2; " y2="126" marker-end="url(#normal-right-arrow)" x2="275" y1="126" x1="275"  />
<rect style="stroke:black; stroke-width:2; fill:none; " rx="16" ry="16" height="35" width="35" y="109" x="25"  />
<text font-size="16" font-weight="bold" font-style="roman" y="132" x="37.1375" font-family="Courier New" fill="black"  >
A</text>
<line style="stroke:black; stroke-width:2; " y2="126" marker-end="url(#normal-right-arrow)" x2="15" y1="126" x1="15"  />
<line y1="126" x2="70" style="stroke:black; stroke-width:2; " x1="60" y2="126"  />
<text font-size="16" font-weight="bold" font-style="roman" y="57" x="123.55" font-family="Courier New" fill="black"  >
0..5</text>
<text font-size="16" font-weight="bold" font-style="roman" y="102" x="90.1875" font-family="Courier New" fill="black"  >
0..11</text>
<rect style="stroke:black; stroke-width:2; fill:none; " rx="16" ry="16" height="35" width="35" y="109" x="100"  />
<text font-size="16" font-weight="bold" font-style="roman" y="132" x="112.1375" font-family="Courier New" fill="black"  >
B</text>
<line style="stroke:black; stroke-width:2; " y2="126" marker-end="url(#normal-right-arrow)" x2="90" y1="126" x1="90"  />
<line y1="126" x2="145" style="stroke:black; stroke-width:2; " x1="135" y2="126"  />
<rect style="stroke:black; stroke-width:2; fill:none; " rx="16" ry="16" height="35" width="35" y="109" x="155"  />
<text font-size="16" font-weight="bold" font-style="roman" y="132" x="167.1375" font-family="Courier New" fill="black"  >
C</text>
<line style="stroke:black; stroke-width:2; " y2="126" marker-end="url(#normal-right-arrow)" x2="145" y1="126" x1="145"  />
<line y1="126" x2="200" style="stroke:black; stroke-width:2; " x1="190" y2="126"  />
<path stroke="black" stroke-width="2" d="m 90,126 c -10,0 -10,-52 0,-52 " fill="none"  />
<path stroke="black" stroke-width="2" d="m 200,74 c 10,0 10,52 0,52 " fill="none"  />
<line style="stroke:black; stroke-width:2; " y2="74" marker-end="url(#normal-right-arrow)" x2="140" y1="74" x1="150"  />
<line y1="74" x2="200" style="stroke:black; stroke-width:2; " x1="90" y2="74"  />
<line y1="126" x2="90" style="stroke:black; stroke-width:2; " x1="70" y2="126"  />
<line y1="126" x2="220" style="stroke:black; stroke-width:2; " x1="200" y2="126"  />
<rect style="stroke:black; stroke-width:2; fill:none; " rx="16" ry="16" height="35" width="35" y="109" x="230"  />
<text font-size="16" font-weight="bold" font-style="roman" y="132" x="242.1375" font-family="Courier New" fill="black"  >
D</text>
<line style="stroke:black; stroke-width:2; " y2="126" marker-end="url(#normal-right-arrow)" x2="220" y1="126" x1="220"  />
<line y1="126" x2="275" style="stroke:black; stroke-width:2; " x1="265" y2="126"  />
</svg>
