<svg xmlns="http://www.w3.org/2000/svg" version="1.1" xmlns:xlink="http://www.w3.org/1999/xlink"  >
<defs  >
<marker refY="10" refX="0" orient="auto" viewBox="0 0 20 20" markerWidth="3" id="small-right-arrow" markerHeight="6"  >
<path d="M 0 0 L 20 10 L 0 20 z "  />
</marker>
<marker refY="10" refX="0" orient="auto" viewBox="0 0 20 20" markerWidth="5" id="normal-right-arrow" markerHeight="10"  >
<path d="M 0 0 L 20 10 L 0 20 z "  />
</marker>
<marker refY="10" refX="0" orient="auto" viewBox="0 0 20 20" markerWidth="7" id="large-right-arrow" markerHeight="14"  >
<path d="M 0 0 L 20 10 L 0 20 z "  />
</marker>
</defs>
<rect style="stroke:black; stroke-width:2; fill:none; " height="146" width="1061" y="0" x="0"  />
<rect style="stroke:black; stroke-width:2; fill:black; " height="34" width="214" y="0" x="0"  />
<text font-size="16" font-weight="bold" font-style="italic" y="23" x="5" font-family="Times New Roman" fill="white"  >
Publication's Identifier</text>
<line y1="81" x2="15" style="stroke:black; stroke-width:2; " x1="5" y2="81"  />
<line style="stroke:black; stroke-width:2; " y2="81" marker-end="url(#normal-right-arrow)" x2="1046" y1="81" x1="1046"  />
<rect style="stroke:black; stroke-width:2; fill:none; " height="79" width="269" y="42" x="45"  />
<rect style="stroke:black; stroke-width:2; fill:black; " height="34" width="161" y="42" x="45"  />
<text font-size="16" font-weight="bold" font-style="italic" y="65" x="50" font-family="Times New Roman" fill="white"  >
Beginning group</text>
<line y1="98" x2="60" style="stroke:black; stroke-width:2; " x1="50" y2="98"  />
<line style="stroke:black; stroke-width:2; " y2="98" marker-end="url(#normal-right-arrow)" x2="299" y1="98" x1="299"  />
<rect style="stroke:black; stroke-width:2; fill:none; " rx="16" ry="16" height="35" width="36" y="81" x="70"  />
<text font-size="16" font-weight="bold" font-style="roman" y="104" x="76" font-family="Courier New" fill="black"  >
97</text>
<line style="stroke:black; stroke-width:2; " y2="98" marker-end="url(#normal-right-arrow)" x2="60" y1="98" x1="60"  />
<line y1="98" x2="116" style="stroke:black; stroke-width:2; " x1="106" y2="98"  />
<rect style="stroke:black; stroke-width:2; fill:black; " rx="16" ry="16" height="35" width="46" y="81" x="126"  />
<text font-size="16" font-weight="bold" font-style="roman" y="104" x="131" font-family="Courier New" fill="white"  >
8</text>
<line y1="84" x2="149" style="stroke:white; stroke-width:2; " x1="149" y2="113"  />
<text font-size="16" font-weight="bold" font-style="roman" y="104" x="154" font-family="Courier New" fill="white"  >
9</text>
<line style="stroke:black; stroke-width:2; " y2="98" marker-end="url(#normal-right-arrow)" x2="116" y1="98" x1="116"  />
<line y1="98" x2="182" style="stroke:black; stroke-width:2; " x1="172" y2="98"  />
<rect style="stroke:black; stroke-width:2; fill:none; " rx="0" height="34" width="97" y="81" x="192"  />
<text font-size="16" font-weight="bold" font-style="italic" y="104" x="197" font-family="Times New Roman" fill="black"  >
Separator</text>
<line style="stroke:black; stroke-width:2; " y2="98" marker-end="url(#normal-right-arrow)" x2="182" y1="98" x1="182"  />
<line y1="98" x2="299" style="stroke:black; stroke-width:2; " x1="289" y2="98"  />
<line style="stroke:black; stroke-width:2; " y2="81" marker-end="url(#normal-right-arrow)" x2="35" y1="81" x1="35"  />
<line y1="81" x2="324" style="stroke:black; stroke-width:2; " x1="314" y2="81"  />
<path stroke="black" stroke-width="2" d="m 15,81 c 10,0 10,50 20,50 " fill="none"  />
<path stroke="black" stroke-width="2" d="m 324,131 c 10,0 10,-50 20,-50 " fill="none"  />
<line style="stroke:black; stroke-width:2; " y2="131" marker-end="url(#normal-right-arrow)" x2="179" y1="131" x1="179"  />
<line y1="131" x2="324" style="stroke:black; stroke-width:2; " x1="35" y2="131"  />
<line y1="81" x2="35" style="stroke:black; stroke-width:2; " x1="15" y2="81"  />
<line y1="81" x2="344" style="stroke:black; stroke-width:2; " x1="324" y2="81"  />
<text font-size="16" font-weight="bold" font-style="roman" y="57" x="359" font-family="Courier New" fill="black"  >
1..5</text>
<rect style="stroke:black; stroke-width:2; fill:black; " rx="16" ry="16" height="35" width="62" y="64" x="354"  />
<text font-size="16" font-weight="bold" font-style="roman" y="87" x="359" font-family="Courier New" fill="white"  >
0..9</text>
<line style="stroke:black; stroke-width:2; " y2="81" marker-end="url(#normal-right-arrow)" x2="344" y1="81" x1="344"  />
<line y1="81" x2="426" style="stroke:black; stroke-width:2; " x1="416" y2="81"  />
<rect style="stroke:black; stroke-width:2; fill:none; " rx="0" height="34" width="97" y="64" x="436"  />
<text font-size="16" font-weight="bold" font-style="italic" y="87" x="441" font-family="Times New Roman" fill="black"  >
Separator</text>
<line style="stroke:black; stroke-width:2; " y2="81" marker-end="url(#normal-right-arrow)" x2="426" y1="81" x1="426"  />
<line y1="81" x2="543" style="stroke:black; stroke-width:2; " x1="533" y2="81"  />
<text font-size="16" font-weight="bold" font-style="roman" y="57" x="558" font-family="Courier New" fill="black"  >
2..7</text>
<rect style="stroke:black; stroke-width:2; fill:black; " rx="16" ry="16" height="35" width="62" y="64" x="553"  />
<text font-size="16" font-weight="bold" font-style="roman" y="87" x="558" font-family="Courier New" fill="white"  >
0..9</text>
<line style="stroke:black; stroke-width:2; " y2="81" marker-end="url(#normal-right-arrow)" x2="543" y1="81" x1="543"  />
<line y1="81" x2="625" style="stroke:black; stroke-width:2; " x1="615" y2="81"  />
<rect style="stroke:black; stroke-width:2; fill:none; " rx="0" height="34" width="97" y="64" x="635"  />
<text font-size="16" font-weight="bold" font-style="italic" y="87" x="640" font-family="Times New Roman" fill="black"  >
Separator</text>
<line style="stroke:black; stroke-width:2; " y2="81" marker-end="url(#normal-right-arrow)" x2="625" y1="81" x1="625"  />
<line y1="81" x2="742" style="stroke:black; stroke-width:2; " x1="732" y2="81"  />
<text font-size="16" font-weight="bold" font-style="roman" y="57" x="757" font-family="Courier New" fill="black"  >
1..6</text>
<rect style="stroke:black; stroke-width:2; fill:black; " rx="16" ry="16" height="35" width="62" y="64" x="752"  />
<text font-size="16" font-weight="bold" font-style="roman" y="87" x="757" font-family="Courier New" fill="white"  >
0..9</text>
<line style="stroke:black; stroke-width:2; " y2="81" marker-end="url(#normal-right-arrow)" x2="742" y1="81" x1="742"  />
<line y1="81" x2="824" style="stroke:black; stroke-width:2; " x1="814" y2="81"  />
<rect style="stroke:black; stroke-width:2; fill:none; " rx="0" height="34" width="97" y="64" x="834"  />
<text font-size="16" font-weight="bold" font-style="italic" y="87" x="839" font-family="Times New Roman" fill="black"  >
Separator</text>
<line style="stroke:black; stroke-width:2; " y2="81" marker-end="url(#normal-right-arrow)" x2="824" y1="81" x1="824"  />
<line y1="81" x2="941" style="stroke:black; stroke-width:2; " x1="931" y2="81"  />
<rect style="stroke:black; stroke-width:2; fill:black; " rx="16" ry="16" height="35" width="85" y="64" x="951"  />
<text font-size="16" font-weight="bold" font-style="roman" y="87" x="956" font-family="Courier New" fill="white"  >
0..9</text>
<line y1="67" x2="1013" style="stroke:white; stroke-width:2; " x1="1013" y2="96"  />
<text font-size="16" font-weight="bold" font-style="roman" y="87" x="1018" font-family="Courier New" fill="white"  >
X</text>
<line style="stroke:black; stroke-width:2; " y2="81" marker-end="url(#normal-right-arrow)" x2="941" y1="81" x1="941"  />
<line y1="81" x2="1046" style="stroke:black; stroke-width:2; " x1="1036" y2="81"  />
</svg>
