<?xml version="1.0" encoding="utf-8" standalone="no"?><svg xmlns:inkscape="http://www.inkscape.org/namespaces/inkscape" xmlns:rdf="http://www.w3.org/1999/02/22-rdf-syntax-ns#" xmlns="http://www.w3.org/2000/svg" xmlns:svg="http://www.w3.org/2000/svg" height="124" width="235" version="1.1" xmlns:cc="http://creativecommons.org/ns#" xmlns:dc="http://purl.org/dc/elements/1.1/" sodipodi:docname="filename.svg" id="svg2" xmlns:sodipodi="http://sodipodi.sourceforge.net/DTD/sodipodi-0.dtd"  >
<metadata id="metadata11"  >
<rdf:RDF  >
<cc:Work rdf:about=""  >
<dc:format  >
image/svg+xml</dc:format>
<dc:type rdf:resource="http://purl.org/dc/dcmitype/StillImage"  />
<dc:title  >
image/svg+xml</dc:title>
</cc:Work>
</rdf:RDF>
</metadata>
<sodipodi:namedview bordercolor="#666666" inkscape:pageshadow="2" guidetolerance="10" pagecolor="#ffffff" gridtolerance="10" inkscape:window-maximized="0" inkscape:zoom="1.0000000" objecttolerance="10" id="base" borderopacity="1" inkscape:current-layer="svg2" inkscape:cx="160.0000" inkscape:cy="1010.000" inkscape:window-y="24" inkscape:window-x="0" inkscape:window-width="640" showgrid="false" inkscape:pageopacity="0" inkscape:window-height="480"  />
<defs id="defs4"  >
<marker refY="10" refX="0" markerUnits="strokeWidth" orient="auto" viewBox="0 0 20 20" markerWidth="3" id="small-right-arrow" markerHeight="6"  >
<path d="M 0 0 L 20 10 L 0 20 z "  />
</marker>
<marker refY="10" refX="0" markerUnits="strokeWidth" orient="auto" viewBox="0 0 20 20" markerWidth="5" id="normal-right-arrow" markerHeight="10"  >
<path d="M 0 0 L 20 10 L 0 20 z "  />
</marker>
<marker refY="10" refX="0" markerUnits="strokeWidth" orient="auto" viewBox="0 0 20 20" markerWidth="7" id="large-right-arrow" markerHeight="14"  >
<path d="M 0 0 L 20 10 L 0 20 z "  />
</marker>
</defs>
<rect style="stroke:black; stroke-width:2; fill:none; " height="124" width="235" y="0" x="0"  />
<rect style="stroke:black; stroke-width:2; fill:black; " height="24" width="198.825" y="0" x="0"  />
<text font-size="16" font-weight="bold" font-style="italic" y="17.78" x="5" font-family="Times New Roman" fill="white"  >
Example of Detour element</text>
<line y1="69" x2="15" style="stroke:black; stroke-width:2; " x1="5" y2="69"  />
<line style="stroke:black; stroke-width:2; " y2="69" marker-end="url(#normal-right-arrow)" x2="220" y1="69" x1="220"  />
<rect style="stroke:black; stroke-width:2; fill:none; " rx="16" ry="16" height="35" width="35" y="52" x="25"  />
<text font-size="16" font-weight="bold" font-style="roman" y="75" x="37.1375" font-family="Courier New" fill="black"  >
A</text>
<line style="stroke:black; stroke-width:2; " y2="69" marker-end="url(#normal-right-arrow)" x2="15" y1="69" x1="15"  />
<line y1="69" x2="70" style="stroke:black; stroke-width:2; " x1="60" y2="69"  />
<text font-size="16" font-weight="bold" font-style="roman" y="45" x="95.55" font-family="Courier New" fill="black"  >
0..2</text>
<rect style="stroke:black; stroke-width:2; fill:none; " rx="16" ry="16" height="35" width="35" y="52" x="100"  />
<text font-size="16" font-weight="bold" font-style="roman" y="75" x="112.1375" font-family="Courier New" fill="black"  >
B</text>
<line style="stroke:black; stroke-width:2; " y2="69" marker-end="url(#normal-right-arrow)" x2="90" y1="69" x1="90"  />
<line y1="69" x2="145" style="stroke:black; stroke-width:2; " x1="135" y2="69"  />
<path stroke="black" stroke-width="2" d="m 70,69 c 10,0 10,40 20,40 " fill="none"  />
<path stroke="black" stroke-width="2" d="m 145,109 c 10,0 10,-40 20,-40 " fill="none"  />
<line style="stroke:black; stroke-width:2; " y2="109" marker-end="url(#normal-right-arrow)" x2="117" y1="109" x1="117"  />
<line y1="109" x2="145" style="stroke:black; stroke-width:2; " x1="90" y2="109"  />
<line y1="69" x2="90" style="stroke:black; stroke-width:2; " x1="70" y2="69"  />
<line y1="69" x2="165" style="stroke:black; stroke-width:2; " x1="145" y2="69"  />
<rect style="stroke:black; stroke-width:2; fill:none; " rx="16" ry="16" height="35" width="35" y="52" x="175"  />
<text font-size="16" font-weight="bold" font-style="roman" y="75" x="187.1375" font-family="Courier New" fill="black"  >
C</text>
<line style="stroke:black; stroke-width:2; " y2="69" marker-end="url(#normal-right-arrow)" x2="165" y1="69" x1="165"  />
<line y1="69" x2="220" style="stroke:black; stroke-width:2; " x1="210" y2="69"  />
</svg>
