<?xml version="1.0" encoding="utf-8" standalone="no"?><svg xmlns:inkscape="http://www.inkscape.org/namespaces/inkscape" xmlns:rdf="http://www.w3.org/1999/02/22-rdf-syntax-ns#" xmlns="http://www.w3.org/2000/svg" xmlns:svg="http://www.w3.org/2000/svg" height="143" width="422.175" version="1.1" xmlns:cc="http://creativecommons.org/ns#" xmlns:dc="http://purl.org/dc/elements/1.1/" sodipodi:docname="filename.svg" id="svg2" xmlns:sodipodi="http://sodipodi.sourceforge.net/DTD/sodipodi-0.dtd"  >
<metadata id="metadata11"  >
<rdf:RDF  >
<cc:Work rdf:about=""  >
<dc:format  >
image/svg+xml</dc:format>
<dc:type rdf:resource="http://purl.org/dc/dcmitype/StillImage"  />
<dc:title  >
image/svg+xml</dc:title>
</cc:Work>
</rdf:RDF>
</metadata>
<sodipodi:namedview bordercolor="#666666" inkscape:pageshadow="2" guidetolerance="10" pagecolor="#ffffff" gridtolerance="10" inkscape:window-maximized="0" inkscape:zoom="1.0000000" objecttolerance="10" id="base" borderopacity="1" inkscape:current-layer="svg2" inkscape:cx="160.0000" inkscape:cy="1010.000" inkscape:window-y="24" inkscape:window-x="0" inkscape:window-width="640" showgrid="false" inkscape:pageopacity="0" inkscape:window-height="480"  />
<defs id="defs4"  >
<marker refY="10" refX="0" markerUnits="strokeWidth" orient="auto" viewBox="0 0 20 20" markerWidth="3" id="small-right-arrow" markerHeight="6"  >
<path d="M 0 0 L 20 10 L 0 20 z "  />
</marker>
<marker refY="10" refX="0" markerUnits="strokeWidth" orient="auto" viewBox="0 0 20 20" markerWidth="5" id="normal-right-arrow" markerHeight="10"  >
<path d="M 0 0 L 20 10 L 0 20 z "  />
</marker>
<marker refY="10" refX="0" markerUnits="strokeWidth" orient="auto" viewBox="0 0 20 20" markerWidth="7" id="large-right-arrow" markerHeight="14"  >
<path d="M 0 0 L 20 10 L 0 20 z "  />
</marker>
</defs>
<rect style="stroke:black; stroke-width:2; fill:none; " height="143" width="422.175" y="0" x="0"  />
<rect style="stroke:black; stroke-width:2; fill:black; " height="24" width="188.1" y="0" x="0"  />
<text font-size="16" font-weight="bold" font-style="italic" y="17.78" x="5" font-family="Times New Roman" fill="white"  >
Example of nested groups</text>
<line y1="88" x2="15" style="stroke:black; stroke-width:2; " x1="5" y2="88"  />
<line style="stroke:black; stroke-width:2; " y2="88" marker-end="url(#normal-right-arrow)" x2="407.175" y1="88" x1="407.175"  />
<rect style="stroke:black; stroke-width:2; fill:none; " rx="16" ry="16" height="35" width="35" y="71" x="25"  />
<text font-size="16" font-weight="bold" font-style="roman" y="94" x="37.1375" font-family="Courier New" fill="black"  >
A</text>
<line style="stroke:black; stroke-width:2; " y2="88" marker-end="url(#normal-right-arrow)" x2="15" y1="88" x1="15"  />
<line y1="88" x2="70" style="stroke:black; stroke-width:2; " x1="60" y2="88"  />
<rect style="stroke:black; stroke-width:2; fill:none; " height="99" width="262.175" y="39" x="80"  />
<rect style="stroke:black; stroke-width:2; fill:black; " height="24" width="107.25" y="39" x="80"  />
<text font-size="16" font-weight="bold" font-style="italic" y="56.78" x="85" font-family="Times New Roman" fill="white"  >
Internal group</text>
<line y1="95" x2="95" style="stroke:black; stroke-width:2; " x1="85" y2="95"  />
<line style="stroke:black; stroke-width:2; " y2="95" marker-end="url(#normal-right-arrow)" x2="327.175" y1="95" x1="327.175"  />
<rect style="stroke:black; stroke-width:2; fill:none; " rx="16" ry="16" height="35" width="35" y="78" x="105"  />
<text font-size="16" font-weight="bold" font-style="roman" y="101" x="111.775" font-family="Courier New" fill="black"  >
C1</text>
<line style="stroke:black; stroke-width:2; " y2="95" marker-end="url(#normal-right-arrow)" x2="95" y1="95" x1="95"  />
<line y1="95" x2="150" style="stroke:black; stroke-width:2; " x1="140" y2="95"  />
<rect style="stroke:black; stroke-width:2; fill:black; " rx="16" ry="16" height="35" width="62.175" y="78" x="180"  />
<text font-size="16" font-weight="bold" font-style="roman" y="101" x="185" font-family="Courier New" fill="white"  >
C</text>
<line y1="81" x2="200.725" style="stroke:white; stroke-width:2; " x1="200.725" y2="110"  />
<text font-size="16" font-weight="bold" font-style="roman" y="101" x="205.725" font-family="Courier New" fill="white"  >
D</text>
<line y1="81" x2="221.45" style="stroke:white; stroke-width:2; " x1="221.45" y2="110"  />
<text font-size="16" font-weight="bold" font-style="roman" y="101" x="226.45" font-family="Courier New" fill="white"  >
E</text>
<line style="stroke:black; stroke-width:2; " y2="95" marker-end="url(#normal-right-arrow)" x2="170" y1="95" x1="170"  />
<line y1="95" x2="252.175" style="stroke:black; stroke-width:2; " x1="242.175" y2="95"  />
<path stroke="black" stroke-width="2" d="m 150,95 c 10,0 10,28 20,28 " fill="none"  />
<path stroke="black" stroke-width="2" d="m 252.175,123 c 10,0 10,-28 20,-28 " fill="none"  />
<line style="stroke:black; stroke-width:2; " y2="123" marker-end="url(#normal-right-arrow)" x2="211.0875" y1="123" x1="211.0875"  />
<line y1="123" x2="252.175" style="stroke:black; stroke-width:2; " x1="170" y2="123"  />
<line y1="95" x2="170" style="stroke:black; stroke-width:2; " x1="150" y2="95"  />
<line y1="95" x2="272.175" style="stroke:black; stroke-width:2; " x1="252.175" y2="95"  />
<rect style="stroke:black; stroke-width:2; fill:none; " rx="16" ry="16" height="35" width="35" y="78" x="282.175"  />
<text font-size="16" font-weight="bold" font-style="roman" y="101" x="288.95" font-family="Courier New" fill="black"  >
C2</text>
<line style="stroke:black; stroke-width:2; " y2="95" marker-end="url(#normal-right-arrow)" x2="272.175" y1="95" x1="272.175"  />
<line y1="95" x2="327.175" style="stroke:black; stroke-width:2; " x1="317.175" y2="95"  />
<line style="stroke:black; stroke-width:2; " y2="88" marker-end="url(#normal-right-arrow)" x2="70" y1="88" x1="70"  />
<line y1="88" x2="352.175" style="stroke:black; stroke-width:2; " x1="342.175" y2="88"  />
<rect style="stroke:black; stroke-width:2; fill:none; " rx="16" ry="16" height="35" width="35" y="71" x="362.175"  />
<text font-size="16" font-weight="bold" font-style="roman" y="94" x="374.3125" font-family="Courier New" fill="black"  >
B</text>
<line style="stroke:black; stroke-width:2; " y2="88" marker-end="url(#normal-right-arrow)" x2="352.175" y1="88" x1="352.175"  />
<line y1="88" x2="407.175" style="stroke:black; stroke-width:2; " x1="397.175" y2="88"  />
</svg>
